<?xml version="1.0" encoding="UTF-8" standalone="no"?>
<svg
   version="1.0"
   width="256.000000pt"
   height="256.000000pt"
   viewBox="0 0 256.000000 256.000000"
   preserveAspectRatio="xMidYMid meet"
   id="svg3"
   sodipodi:docname="f1b57466-a2f5-459d-955c-39c19b9facc1.svg"
   xmlns:inkscape="http://www.inkscape.org/namespaces/inkscape"
   xmlns:sodipodi="http://sodipodi.sourceforge.net/DTD/sodipodi-0.dtd"
   xmlns="http://www.w3.org/2000/svg"
   xmlns:svg="http://www.w3.org/2000/svg">
  <defs
     id="defs3" />
  <sodipodi:namedview
     id="namedview3"
     pagecolor="#ffffff"
     bordercolor="#000000"
     borderopacity="0.25"
     inkscape:showpageshadow="2"
     inkscape:pageopacity="0.0"
     inkscape:pagecheckerboard="0"
     inkscape:deskcolor="#d1d1d1"
     inkscape:document-units="pt" />
  <g
     transform="translate(0.000000,256.000000) scale(0.100000,-0.100000)"
     fill="#000000"
     stroke="none"
     id="g3">
    <path
       d="M0 1280 l0 -1280 1280 0 1280 0 0 1280 0 1280 -1280 0 -1280 0 0 -1280z m1846 499 c70 -35 89 -66 89 -147 0 -66 -1 -70 -161 -393 -135 -270 -171 -335 -215 -384 -96 -104 -202 -132 -307 -79 -67 33 -110 86 -162 200 l-42 92 -122 -5 c-140 -7 -206 7 -273 56 -64 47 -96 109 -101 200 -4 71 -2 80 30 141 37 71 102 129 168 149 61 18 148 14 197 -10 59 -29 88 -70 154 -217 31 -69 61 -128 67 -130 7 -2 35 20 64 50 44 44 65 80 127 215 72 158 97 195 174 253 60 45 230 50 313 9z"
       id="path1" />
    <path
       d="M1635 1650 c-38 -15 -66 -57 -139 -206 -86 -176 -133 -239 -216 -290 -33 -20 -60 -39 -60 -41 0 -13 76 -152 93 -171 32 -35 82 -30 121 11 43 46 327 607 328 648 1 20 -6 37 -17 45 -21 15 -79 17 -110 4z"
       id="path2" />
    <path
       d="M775 1473 c-26 -7 -63 -41 -81 -75 -33 -64 -5 -156 57 -190 26 -14 56 -18 136 -18 57 0 103 2 103 5 0 19 -106 237 -123 253 -24 23 -61 33 -92 25z"
       id="path3" />
  </g>
</svg>
